<?xml version="1.0" encoding="UTF-8"?>
<svg id="Ebene_1" data-name="Ebene 1" xmlns="http://www.w3.org/2000/svg" viewBox="0 0 216.45 226.12">
  <defs>
    <style>
      .cls-1 {
        fill: #f1bd3f;
        stroke: #f1bd3f;
        stroke-miterlimit: 10;
      }
    </style>
  </defs>
  <path class="cls-1" d="m215.58,19.81c-.48-3.05-1.28-8.15-5.36-12.78-1.76-2-3.9-3.64-6.37-4.89-3.78-1.35-7.69-1.88-11.57-1.54-2.84.25-7.37,1.06-13.84,5.25-4.71,3.05-13.98,10.64-23.2,27.24-5.12,9.21-7.72,16.79-11.01,26.38-3.12,9.08-5.75,18.41-7.83,27.72l-.06.25-10.01,4.27-21.43,7.52-17.01,5.01-13.37,2.92,5.41-25.16,2.08-15.92.53-11.09c-.22-3.77-.91-7.56-2.04-11.19-.73-2.34-1.66-4.64-2.75-6.84l-4.33-7.48c-.89-.98-2.74-2.63-5.44-2.9-.95-.1-2.71-.27-4.18.85-2.23,1.7-1.89,5.05-1.87,5.19.08.76.26,1.08,1.03,2.46.37.67.87,1.56,1.54,2.85,1.23,2.34,1.84,3.52,2.33,4.83.74,1.97,1.11,3.88,1.3,6.58,1.09,15.63-1.41,30.17-1.44,30.32-1.03,5.91-2.43,11.86-4.15,17.7-.71,2.78-3.15,11.99-4.32,12.82-1.17.84-7.87,2.02-8.63,2.15-.13.02-11.51,1.63-23.14-.44-10.93-1.94-12.88-2.37-12.95-2.39l-.5-.11c-3.01-.69-5.4-1.24-7.67,0-2.5,1.36-3.24,3.99-3.27,4.1-.19.69-.7,3.09.65,4.87.7.93,1.65,1.34,2.56,1.68,5.36,2.01,8.65,2.25,8.68,2.25,2.19.14,10.35.56,23.62-.16l16.81-1.33-.26.73c-.04.11-3.84,10.73-6.2,16.7-4.3,10.89-8,18.77-11.14,25.3-3.98,8.29-8.29,16.56-12.81,24.58-1.46,2.95-3.13,5.81-4.95,8.46-8.51,12.38-15.25,19.16-15.32,19.22-.98.98-3.16,3.16-3.19,6.01,0,.45.04,2.74,1.42,3.54.39.23,1.05.44,2.65.03,2.49-.64,4.81-2.11,6.91-4.38,5.6-6.51,10.93-13.45,15.85-20.61,5.08-7.4,8.52-13.4,14.76-24.28,8.45-14.74,12.69-22.15,17.22-32.3,3.7-8.28,6.92-16.85,9.59-25.45l.09-.28.29-.06c.06-.01,6.31-1.29,15.11-2.86l.86-.15c8.12-1.45,10.58-1.89,25-5.88,14.74-4.08,22.13-6.95,22.2-6.98l.85-.33-.17.89c-.08.38-7.51,38.5-8.42,47.16-.02.18-1.81,17.77.79,33.16.01.09,1.54,8.89,5.89,15.63,1.8,2.78,3.94,4.86,3.96,4.88,1.45,1.41,3.1,2.69,4.78,3.7,1.74,1.05,3.6,1.88,5.53,2.5,1.25.22,2.59.37,3.93.46,4.03.24,7-.28,10.13-.83.05,0,4.59-.82,11.15-2.92,1.2-.38,2.38-.81,2.89-.99,2.01-.73,2.59-1.01,2.81-1.11.82-.39,1.53-.73,2.35-1.38.99-.77,1.64-1.28,1.87-2.15.17-.66.08-1.37-.28-2.12,0-.01-.47-.94-1.43-1.57-1.18-.76-2.78-.35-4.99.21-1.7.43-3.82.96-6.28,1.05-1.63.06-5.45.18-9.02-2.14-1.32-.86-2.48-1.97-3.44-3.29-.07-.05-3.16-3.03-4.61-8.35l-.3-1.09c-1.35-4.84-2.75-9.84-1.86-27.43.94-18.64,2.61-30.68,2.63-30.8l5.04-32.42.19-.12c.13-.08,12.79-7.99,27.62-19.05,14.77-11.02,24.11-25.01,24.2-25.15,2.85-4.49,9.28-16.28,7.31-28.73Zm-14.87,6.51c-.27,1.2-.71,2.96-1.41,5.05-2.32,6.9-5.56,11.66-9,16.57-3.21,4.58-5.91,7.69-6.91,8.82-2.71,3.06-4.92,5.17-7.45,7.57-3.59,3.41-5.38,5.12-7.73,6.81-2.21,1.6-5.57,3.73-10.17,5.56,2.19-6.73,4.38-13.46,6.58-20.19,2.57-6.36,5.01-11.59,6.91-15.44.89-1.8,5.45-10.92,12.46-18.66.96-1.06,2.93-3.16,6.14-4.17,1.45-.46,4.88-1.52,7.69.48,2.23,1.58,3.28,4.54,2.9,7.59Z"/>
</svg>