<?xml version="1.0" encoding="utf-8"?>
<!-- Generator: Adobe Illustrator 27.8.0, SVG Export Plug-In . SVG Version: 6.00 Build 0)  -->
<svg version="1.1" id="Ebene_1" xmlns="http://www.w3.org/2000/svg" xmlns:xlink="http://www.w3.org/1999/xlink" x="0px" y="0px"
	 viewBox="0 0 1024 1024" style="enable-background:new 0 0 1024 1024;" xml:space="preserve">
<style type="text/css">
	.st0{fill:#E9A8CB;}
	.st1{fill:#03305D;}
</style>
<path class="st0" d="M379.9,509.7c-15.6-21.4-29.2-44.6-40.6-69c-46.1-99.1-11.7-222.6-11.7-222.6c108.3-20.4,207.8,20.2,275.4,112
	c22.9-4.5,61.7,2.4,97.9,43.6l-51.3,45c14.5,39.3,23.9,80.8,27.9,123c0,0,5.7,66.7-4.4,112.4c-13.2,72.8-48.3,142.9-114.8,198
	c0,0-33.3-104.8-136.7-103.9c76.5-48.3,173.5,0.5,149.3-66.4c-14.1-38.8-63-56.4-117-97.4"/>
<path class="st0" d="M379.9,509.7c0,0-30.6,55.5-16.6,87.1c4,9,22-3.6,42.2,0.1c23.1,4.1,38.8,21,43.8,8.7
	c10.9-26.6,1.8-69.9-20.7-80.7"/>
<path class="st1" d="M397.8,279.8c-10.2,1.2-19.3-6.7-20.4-17.8c-1.1-11.1,6.3-21.1,16.5-22.5c10.2-1.2,19.3,6.7,20.4,17.8
	C415.3,268.5,408,278.5,397.8,279.8L397.8,279.8z"/>
<path class="st1" d="M708.9,615.3L708.9,615.3c-6.5-0.4-11.4-6.5-10.9-13.5c0.4-6.6,0.7-13.3,0.7-19.9c0.2-7.1,5.5-12.8,12-12.8
	c6.4,0,11.6,5.9,11.6,12.9l0,0c-0.2,7.1-0.3,14.3-0.8,21.2C721,610.2,715.3,615.6,708.9,615.3z"/>
<path class="st1" d="M327.4,415.4c-1.4-1.9-2.3-4.1-2.5-6.6c-19.5-52.6-20.9-108.5-18.3-147.9c3-47.6,12.4-81.5,12.8-82.8
	c1.3-4.7,5-8.2,9.3-9c60.3-11.4,117.9-6.1,171.2,15.5c51.4,20.9,96.1,56.1,133,104.4c14.5-1.5,30.7,0.7,46.4,6.6
	c22.6,8.4,43.8,23.5,62.9,45.1c4.5,5.1,4.3,13.2-0.4,18.1c-0.3,0.3-0.5,0.6-0.9,0.7l-48.5,42.7c14.3,40.9,23.6,83.7,27.8,127.4
	c0.6,7.1-4.1,13.4-10.6,14.1c-6.5,0.8-12.2-4.3-12.9-11.4l0,0c-4.2-44.5-14.1-88-29.4-129.3c-2-5.2-0.5-11.3,3.6-14.9l44.8-39.5
	c-31.7-30.8-64.7-37.9-86.1-33.5c-4.3,0.8-8.5-0.9-11.1-4.4c-22.2-30-47.4-54.8-75.4-74c-9.6,31.7-36.9,72-73.5,107.7
	c-38,37.4-79.3,63.1-115.8,72.5c11.7,25.4,25.9,49.4,42.2,71.6c0.2,0.3,0.5,0.6,0.6,1l0.1,0.1c0.2,0.3,0.3,0.6,0.5,0.8l0.1,0.3
	c0.1,0.3,0.3,0.5,0.3,0.8l0.1,0.3c0.1,0.2,0.2,0.5,0.3,0.7c0.1,0.3,0.1,0.3,0.1,0.5c0.1,0.1,0.1,0.5,0.2,0.7
	c0.1,0.2,0.1,0.3,0.1,0.5c0,0.1,0.1,0.5,0,0.8c0,0.3,0.1,0.3,0.1,0.5c0,0.1,0.1,0.6,0,0.8c0,0.3,0,0.3,0,0.4l-0.1,1.2
	c0,0.1,0,0.6-0.2,0.8c-0.1,0.2,0,0.3-0.1,0.5c-0.1,0.1-0.1,0.5-0.1,0.7c-0.1,0.3-0.1,0.3-0.1,0.6s-0.1,0.4-0.1,0.6
	c-0.1,0.2-0.1,0.5-0.2,0.7l-0.1,0.5c-0.1,0.3-0.2,0.6-0.4,0.8l-0.1,0.2c-5.5,10.4-10.1,21.1-13.8,32.3c-6.4,19.3-8,34.9-4.9,45.8
	c1.9-0.3,4.3-0.7,6.3-1.2c8.3-1.8,19.8-4.1,32.2-1.8c11.2,2,20.7,6.4,28.3,9.9c2.3,1.2,5.3,2.5,7.6,3.3c3.3-10.7,3.4-24.7,0.4-37.8
	c-3.4-14.3-10.2-25.1-18.2-29c-5.9-2.8-8.5-10.4-5.8-16.9c2.6-6.4,9.6-9.4,15.6-6.6c14.6,7.1,26,23.7,31.3,45.7
	c1.9,7.6,2.8,15.6,3,23.5c16.4,12.1,32.5,22.5,46.9,31.7c37.3,23.9,66.7,42.8,78.6,75.4c6.3,17.7,6.6,31.2,0.6,41.5
	c-10.2,17.3-33.1,18.7-62.3,20.4c-19.2,1.1-41.4,2.6-63.5,8.3c36.2,10.9,61.5,33.6,77.8,53.6c10.9,13.6,20.3,28.6,27.8,44.7
	c27.9-25.1,51-54.1,68.8-86.1c18.8-33.8,32-71,38.8-109.8c1-7.1,7-11.9,13.4-10.9c6.3,1,10.8,7.4,9.9,14.5c0,0.4-0.2,0.8-0.2,1.2
	c-7.5,41.7-21.6,81.9-41.9,118.3c-21.8,39.1-51,74-86.5,103.4c-5.2,4.3-12.5,3.2-16.4-2.4c-0.7-1.1-1.4-2.2-1.7-3.4
	c-0.1-0.3-8.5-26.2-29.6-52.3c-28.2-34.6-64.1-51.9-107-51.6c-6.4,0.1-11.7-5.6-11.7-12.7c0-4.6,2.3-9,6.1-11.2
	c39.1-24.7,83-27.3,115.1-29.2c17.9-1.1,40.1-2.5,43.7-8.4c1.1-2,1.1-7.7-2.6-18.1c-8.9-24.5-35.4-41.6-68.8-63
	c-11.9-7.7-25-16-38.5-25.6c-0.7,2.4-1.5,4.5-2.4,6.8c-3.5,8.5-10.5,12.9-18.8,12.4l-1.4-0.1c-5.3-0.6-10.5-3.1-16.7-5.9
	c-6.8-3.2-14.5-6.7-23.1-8.1c-8.3-1.6-16.6,0.2-24.1,1.7c-5.1,1.1-9.5,2-13.7,1.9c-10.3-0.3-14.8-6.8-16.5-10.7
	c-7.8-17.4-6.8-40.8,2.8-69.8c3.3-9.8,7.2-19.4,11.7-28.6c-15.4-22.1-28.9-45.5-40.3-70.2C330.8,423.8,329,419.6,327.4,415.4
	L327.4,415.4z M454.4,325.4c35.5-34.7,61.9-74.4,68.1-101.7c-10-5.7-20.3-10.7-31-15c-47.2-19.3-98.3-24.5-151.7-15.7
	c-5.1,23-8.5,46.5-10,70.2c-2.2,34.9-1,83.6,14.7,129.9C378,385.7,417.5,361.4,454.4,325.4L454.4,325.4z"/>
<path class="st1" d="M640.5,559.5c-4.9,4.6-12.3,4-16.4-1.4l0,0l-124.4-161c-4.2-5.4-3.5-13.5,1.5-18c4.9-4.6,12.3-4,16.5,1.4
	l124.4,161C646.2,546.7,645.5,554.8,640.5,559.5L640.5,559.5L640.5,559.5z M535.8,529c-4.9,4.6-12.3,4-16.4-1.4l0,0l-70.9-91.8
	c-4.2-5.4-3.5-13.5,1.5-18c5-4.6,12.3-4,16.5,1.4l70.9,91.8C541.5,516.3,540.9,524.3,535.8,529C535.8,528.9,535.8,529,535.8,529z
	 M616.6,444.8L542,348.2c-4.2-5.4-3.5-13.5,1.5-18c4.9-4.6,12.3-4,16.5,1.4l0,0l74.6,96.5c4.2,5.4,3.5,13.5-1.5,18
	C628.1,450.8,620.7,450.1,616.6,444.8z"/>
</svg>
