<?xml version="1.0" encoding="utf-8"?>
<!-- Generator: Adobe Illustrator 27.8.0, SVG Export Plug-In . SVG Version: 6.00 Build 0)  -->
<svg version="1.1" id="Ebene_1" xmlns="http://www.w3.org/2000/svg" xmlns:xlink="http://www.w3.org/1999/xlink" x="0px" y="0px"
	 viewBox="0 0 865.1 355.8" style="enable-background:new 0 0 865.1 355.8;" xml:space="preserve">
<style type="text/css">
	.st0{fill:#05305D;}
	.st1{fill:#FCB904;}
	.st2{font-family:'Apple-Chancery';}
	.st3{font-size:253.5455px;}
</style>
<g>
	<path class="st0" d="M501.1,175.5c-2.8,8.5-7,12.8-12.8,12.8c-5.1,0-8.8-2.8-11.3-8.4c-2.6-5.6-4-13.8-4-24.3s1.2-19.3,3.6-24.6
		c2.4-5.4,6.1-8.1,11.1-8.1c3.2,0,5.9,1.1,8.1,3.2s3.9,5.5,5.2,10v-11.9h15.4v63.5H501L501.1,175.5L501.1,175.5z M500.2,141.6
		c-1.2-3.1-2.8-4.7-5-4.7c-2.3,0-3.9,1.5-5,4.5c-1,3.1-1.5,8-1.5,14.6c0,6.2,0.5,10.8,1.5,13.9c1.1,3,2.7,4.5,4.8,4.5
		c2.3,0,4-1.6,5.1-4.7c1.1-3.1,1.7-7.9,1.7-14.4C501.9,149.3,501.3,144.7,500.2,141.6L500.2,141.6z"/>
	<path class="st0" d="M530.5,124.1h14.6v10.1c2-4,4.1-6.9,6.5-8.7s5.1-2.8,8.4-2.8c3.5,0,6.2,1,8.3,2.9s3.2,4.6,3.5,8
		c1.5-3.6,3.4-6.3,5.8-8.1c2.4-1.8,5.2-2.8,8.5-2.8s5.5,0.6,7.3,1.8s3,3.1,3.8,5.9s1.2,6.6,1.2,11.6v45.4h-15.5v-39.7
		c0-4.5-0.4-7.6-1.1-9.2c-0.8-1.7-2.1-2.5-3.8-2.5c-2,0-3.5,0.9-4.4,2.8c-1,1.9-1.4,4.8-1.4,8.6v40h-15.3v-39.7
		c0-4.2-0.4-7.3-1.1-9.2c-0.8-1.7-2.1-2.5-3.8-2.5c-2,0-3.5,0.9-4.4,2.8c-1,1.9-1.4,4.8-1.4,8.6v40h-15.5v-63.3H530.5z"/>
	<path class="st0" d="M611.3,101.6h15.5V136c1.3-4.6,3.1-7.9,5.2-10c2.2-2.1,4.8-3.2,8-3.2c4.9,0,8.7,2.7,11.2,8.1
		c2.4,5.4,3.6,13.6,3.6,24.6s-1.3,18.7-4,24.3c-2.6,5.6-6.5,8.4-11.4,8.4c-5.8,0-10-4.2-12.7-12.8v12.1h-15.5L611.3,101.6
		L611.3,101.6z M627.7,169.7c1.1,3.1,2.8,4.7,5.1,4.7c2,0,3.6-1.5,4.6-4.5c1-2.9,1.5-7.5,1.5-13.9c0-7-0.5-11.9-1.4-14.7
		c-1-2.9-2.6-4.4-4.8-4.4s-3.8,1.6-5,4.7c-1.2,3-1.8,7.6-1.8,13.6C626,161.9,626.6,166.7,627.7,169.7L627.7,169.7z"/>
	<path class="st0" d="M681.6,124.1v37.3c0,5.6,0.4,9.5,1.3,11.4c0.8,2.1,2.2,3.2,4.3,3.2c1.9,0,3.3-1,4.2-3.1
		c0.8-2.2,1.2-6,1.2-11.5v-37.3H708v37c0,9.5-1.7,16.5-5.1,21.1s-8.6,6.9-15.7,6.9s-12.4-2.3-15.8-6.9c-3.5-4.6-5.2-11.6-5.2-21.1
		v-37L681.6,124.1L681.6,124.1z"/>
	<path class="st0" d="M721.5,124.1h14.6v15.7h0.8c1.2-5.6,3.2-9.8,6.1-12.8c2.9-2.9,6.4-4.4,10.6-4.4h0.7v16.5
		c-0.6-0.1-1.8-0.1-3.7-0.1c-4.6,0-8,1.2-10.2,3.5c-2.2,2.4-3.3,6-3.3,10.9v34h-15.5L721.5,124.1L721.5,124.1z"/>
	<path class="st0" d="M775.3,188.3c-5.1,0-8.8-2.8-11.3-8.4c-2.6-5.6-4-13.8-4-24.3s1.2-19.3,3.6-24.6c2.4-5.4,6.1-8.1,11.1-8.1
		c3.2,0,5.9,1.1,8.1,3.2c2.2,2.1,3.9,5.5,5.2,10v-11.9h15.4v54.1c0,5.6-0.2,10.1-0.6,13.4c-0.4,3.3-1.1,5.9-2.1,7.9
		c-3.7,7.8-10.4,11.7-20,11.7c-4.3,0-8.2-0.9-11.7-2.6c-3.5-1.8-6.1-4.2-7.9-7.5l11.7-7.9c1.7,3.7,4.1,5.6,7.3,5.6
		c2.7,0,4.7-1.1,6-3.4c1.3-2.2,2-5.6,2-10.2v-9.7C785.3,184,781,188.3,775.3,188.3L775.3,188.3z M787.2,141.6
		c-1.2-3.1-2.8-4.7-5-4.7c-2.3,0-3.9,1.5-5,4.5c-1,3.1-1.5,8-1.5,14.6c0,6.2,0.5,10.8,1.5,13.9c1.1,3,2.7,4.5,4.8,4.5
		c2.3,0,4-1.6,5.1-4.7c1.1-3.1,1.7-7.9,1.7-14.4C788.9,149.3,788.3,144.7,787.2,141.6z"/>
</g>
<g>
	<path class="st0" d="M86.5,101.6h16.7v33.7h13.1v-33.7h16.6v86h-16.6v-38.7h-13.1v38.7H86.5V101.6L86.5,101.6z"/>
	<path class="st0" d="M173,175.5c-2.8,8.5-7,12.8-12.8,12.8c-5.1,0-8.8-2.8-11.3-8.4c-2.6-5.6-4-13.8-4-24.3s1.2-19.3,3.6-24.6
		c2.4-5.4,6.1-8.1,11.1-8.1c3.2,0,5.9,1.1,8.1,3.2c2.2,2.1,3.9,5.5,5.2,10v-11.9h15.4v63.5H173V175.5z M172.1,141.6
		c-1.2-3.1-2.8-4.7-4.9-4.7c-2.3,0-3.9,1.5-4.9,4.5c-1,3.1-1.5,8-1.5,14.6c0,6.2,0.5,10.8,1.5,13.9c1.1,3,2.7,4.5,4.8,4.5
		c2.3,0,4-1.6,5.1-4.7c1.1-3.1,1.6-7.9,1.6-14.4C173.8,149.3,173.2,144.7,172.1,141.6L172.1,141.6z"/>
	<path class="st0" d="M217.2,124.1v37.3c0,5.6,0.4,9.5,1.3,11.4c0.8,2.1,2.2,3.2,4.3,3.2c1.9,0,3.3-1,4.2-3.1
		c0.8-2.2,1.2-6,1.2-11.5v-37.3h15.4v37c0,9.5-1.7,16.5-5.1,21.1s-8.6,6.9-15.7,6.9s-12.4-2.3-15.8-6.9c-3.4-4.6-5.2-11.6-5.2-21.1
		v-37L217.2,124.1L217.2,124.1z"/>
	<path class="st0" d="M268.7,174.6c1.4,1.4,3,2,4.6,2c1.5,0,2.8-0.5,3.9-1.6s1.6-2.4,1.6-4c0-2.8-2.9-6-8.7-9.6l-1.9-1.3
		c-4.8-3.1-8.1-6.1-10.1-9s-3-6.3-3-10.2c0-3.4,0.9-6.6,2.6-9.4c1.7-2.8,4.1-5,7.1-6.6s6.3-2.4,10-2.4c4.2,0,7.9,1.1,11,3.2
		s5.6,5.1,7.2,8.8l-10.2,6.8c-0.6-2.1-1.6-3.7-3-5s-3-1.9-4.8-1.9s-3.1,0.5-4.1,1.4s-1.6,2.2-1.6,3.7c0,2.6,2.6,5.5,7.9,8.8
		c2.6,1.5,4.2,2.6,5.1,3.2c4,2.6,6.8,5.4,8.6,8.2c1.8,2.8,2.6,6.1,2.6,9.7c0,5.9-1.9,10.6-5.5,14.1c-3.7,3.6-8.6,5.3-14.7,5.3
		c-4.2,0-8-1-11.4-3.1c-3.3-2-6-5-7.9-8.9l11.1-8.1C266,171.3,267.2,173.2,268.7,174.6L268.7,174.6z"/>
</g>
<g>
	<path class="st0" d="M197.4,355.2L181.3,328h-12v27.2h-6.5v-65h19.5c7.2,0,12.8,1.7,16.5,5.2s5.6,8,5.6,13.7c0,4.7-1.4,8.7-4.1,12
		c-2.7,3.3-6.7,5.5-11.9,6.5l16.7,27.6L197.4,355.2L197.4,355.2z M169.3,322.7h13.1c5.1,0,8.9-1.2,11.5-3.7s3.9-5.8,3.9-10
		s-1.2-7.6-3.7-9.9s-6.4-3.5-11.7-3.5h-13v27.1H169.3z"/>
	<path class="st0" d="M223.9,295.5v24.3h24.7v5.4H224v24.6h27.4v5.4h-33.9v-65.1h33.9v5.4L223.9,295.5L223.9,295.5z"/>
	<path class="st0" d="M272.6,353.6c-3.2-1.5-5.8-3.6-7.7-6.2c-1.9-2.7-2.9-5.6-3-8.9h6.9c0.3,3.2,1.7,5.9,4.2,8.3s6.1,3.6,10.9,3.6
		c4.4,0,7.9-1.1,10.5-3.4s3.9-5.1,3.9-8.6c0-2.8-0.7-5-2.1-6.7s-3.2-3-5.3-3.8c-2.1-0.8-5-1.8-8.7-2.7c-4.3-1.2-7.8-2.3-10.3-3.4
		s-4.7-2.9-6.5-5.2c-1.8-2.4-2.7-5.5-2.7-9.6c0-3.4,0.9-6.3,2.6-9s4.2-4.7,7.4-6.2c3.2-1.5,6.8-2.2,10.9-2.2c6,0,10.9,1.5,14.5,4.4
		s5.8,6.7,6.4,11.4h-7.1c-0.4-2.7-1.9-5-4.4-7.1s-5.8-3.1-10-3.1c-3.9,0-7.2,1-9.8,3.1c-2.6,2.1-3.9,4.9-3.9,8.5
		c0,2.7,0.7,4.9,2.1,6.6s3.2,3,5.4,3.8c2.1,0.9,5,1.8,8.7,2.8c4.2,1.2,7.6,2.3,10.2,3.5s4.8,2.9,6.6,5.2c1.8,2.4,2.7,5.5,2.7,9.5
		c0,3-0.8,5.9-2.4,8.6s-4,4.9-7.2,6.6s-6.9,2.5-11.4,2.5S275.8,355.1,272.6,353.6L272.6,353.6z"/>
	<path class="st0" d="M355.4,290.2v5.4h-18v59.6h-6.5v-59.6h-18.1v-5.4H355.4L355.4,290.2z"/>
	<path class="st0" d="M403.4,339.7h-29.6l-5.7,15.4h-6.9L385,291h7.4l23.6,64.2h-6.9L403.4,339.7L403.4,339.7z M401.4,334.3
		l-12.8-35.1l-12.8,35.1H401.4L401.4,334.3z"/>
	<path class="st0" d="M432.6,290.2v40.9c0,6.5,1.5,11.2,4.6,14.3s7.3,4.6,12.6,4.6s9.5-1.5,12.5-4.6s4.5-7.9,4.5-14.4v-40.9h6.5V331
		c0,8.2-2.2,14.5-6.6,18.6c-4.4,4.2-10.1,6.2-17.1,6.2s-12.7-2.1-17.1-6.2s-6.6-10.4-6.6-18.6v-40.8H432.6L432.6,290.2z"/>
	<path class="st0" d="M522.4,355.2L506.3,328h-12v27.2h-6.5v-65h19.5c7.3,0,12.8,1.7,16.5,5.2s5.6,8,5.6,13.7c0,4.7-1.3,8.7-4,12
		s-6.7,5.5-12,6.5l16.7,27.6L522.4,355.2L522.4,355.2z M494.3,322.7h13.1c5.1,0,8.9-1.2,11.5-3.7c2.6-2.5,3.9-5.8,3.9-10
		s-1.2-7.6-3.7-9.9s-6.4-3.5-11.7-3.5h-13L494.3,322.7L494.3,322.7z"/>
	<path class="st0" d="M580.1,339.7h-29.6l-5.7,15.4H538l23.7-64.2h7.3l23.6,64.2h-6.9L580.1,339.7L580.1,339.7z M578.2,334.3
		l-12.8-35.1l-12.8,35.1H578.2L578.2,334.3z"/>
	<path class="st0" d="M652.1,355.2h-6.5l-36-54.7v54.7h-6.5v-65h6.5l36,54.6v-54.6h6.5V355.2z"/>
	<path class="st0" d="M704.9,290.2v5.4h-18v59.6h-6.5v-59.6h-18.1v-5.4H704.9L704.9,290.2z"/>
</g>
<rect y="250.7" class="st0" width="863.2" height="9.3"/>
<text transform="matrix(0.9466 0 0 1 293.5002 228.5165)" class="st1 st2 st3">H</text>
</svg>
