<?xml version="1.0" encoding="UTF-8"?>
<svg id="Ebene_1" data-name="Ebene 1" xmlns="http://www.w3.org/2000/svg" viewBox="0 0 863.15 416.16">
  <defs>
    <style>
      .cls-1 {
        fill: #f1bd3f;
        stroke: #f1bd3f;
        stroke-miterlimit: 10;
      }

      .cls-2 {
        fill: #05305d;
        stroke-width: 0px;
      }
    </style>
  </defs>
  <g>
    <path class="cls-2" d="m501.38,143.77c0-2.78-.62-4.99-1.87-6.62-1.25-1.63-2.88-2.45-4.9-2.45s-3.79.82-5.04,2.45c-1.25,1.63-1.87,3.84-1.87,6.62v8.35h-16.42v-7.34c0-7.49,2.06-13.39,6.19-17.71,4.13-4.32,9.79-6.48,16.99-6.48s12.89,2.18,17.06,6.55c4.18,4.37,6.26,10.25,6.26,17.64v50.69h-16.42v-7.92h-.43c-3.84,6.24-8.88,9.36-15.12,9.36-4.51,0-8.14-1.54-10.87-4.61-2.74-3.07-4.1-7.06-4.1-11.95v-8.06c0-5.18,1.75-9.26,5.26-12.24,3.5-2.97,8.28-4.46,14.33-4.46h10.94v-11.81Zm0,20.16h-4.46c-6.43,0-9.65,2.45-9.65,7.34v5.47c0,2.3.55,4.1,1.66,5.4,1.1,1.3,2.66,1.94,4.68,1.94,3.84,0,6.43-2.06,7.78-6.19v-13.97Z"/>
    <path class="cls-2" d="m523.41,122.02h16.42v9.22h1.15c1.54-3.36,3.48-5.98,5.83-7.85,2.35-1.87,4.97-2.81,7.85-2.81,3.07,0,5.74.96,7.99,2.88,2.25,1.92,3.96,4.56,5.11,7.92h1.01c1.63-3.46,3.74-6.12,6.34-7.99,2.59-1.87,5.38-2.81,8.35-2.81,2.11,0,4.1.46,5.98,1.37,1.87.91,3.53,2.23,4.97,3.96,1.44,1.73,2.59,3.87,3.46,6.41.86,2.54,1.3,5.45,1.3,8.71v54.43h-16.42v-52.13c0-2.5-.55-4.51-1.66-6.05-1.1-1.53-2.57-2.3-4.39-2.3-2.69,0-5.09,1.82-7.2,5.47v55.01h-16.42v-52.13c0-2.5-.55-4.51-1.66-6.05-1.1-1.53-2.52-2.3-4.25-2.3-1.54,0-2.95.62-4.25,1.87-1.3,1.25-2.33,2.98-3.1,5.18v53.42h-16.42v-73.44Z"/>
    <path class="cls-2" d="m604.77,91.78h16.42v39.02h1.15c1.53-3.36,3.55-5.9,6.05-7.63,2.5-1.73,5.28-2.59,8.35-2.59,4.51,0,8.14,1.71,10.87,5.11,2.74,3.41,4.1,8.23,4.1,14.47v35.71c0,6.34-1.39,11.43-4.18,15.26-2.79,3.84-6.48,5.76-11.09,5.76-3.07,0-5.83-.86-8.28-2.59-2.45-1.73-4.39-4.27-5.83-7.63h-1.15v8.78h-16.42v-103.68Zm16.42,84.38c.58,1.92,1.58,3.46,3.02,4.61,1.44,1.15,2.97,1.73,4.61,1.73,1.92,0,3.48-.79,4.68-2.38,1.2-1.58,1.8-3.62,1.8-6.12v-30.67c0-2.5-.6-4.51-1.8-6.05-1.2-1.53-2.76-2.3-4.68-2.3-1.63,0-3.17.58-4.61,1.73-1.44,1.15-2.45,2.69-3.02,4.61v34.85Z"/>
    <path class="cls-2" d="m703.99,195.46h-16.42v-9.22h-1.15c-3.36,7.11-8.16,10.66-14.4,10.66-4.23,0-7.78-1.73-10.66-5.18s-4.32-8.54-4.32-15.26v-54.43h16.42v52.56c0,2.5.58,4.51,1.73,6.05,1.15,1.54,2.69,2.3,4.61,2.3,1.63,0,3.14-.6,4.54-1.8,1.39-1.2,2.47-2.85,3.24-4.97v-54.14h16.42v73.44Z"/>
    <path class="cls-2" d="m726.02,134.26h.43c1.34-4.13,3.26-7.44,5.76-9.94,2.5-2.5,5.85-3.74,10.08-3.74.96,0,1.68.05,2.16.14v16.27c-.58-.19-1.15-.29-1.73-.29h-1.73c-5.18,0-8.98,1.68-11.38,5.04-2.4,3.36-3.6,7.92-3.6,13.68v40.03h-16.42v-73.44h16.42v12.24Z"/>
    <path class="cls-2" d="m794.56,203.38c0,6.91-2.04,12.36-6.12,16.34-4.08,3.98-9.77,5.98-17.06,5.98s-12.89-1.97-17.06-5.9c-4.18-3.94-6.26-9.36-6.26-16.27v-3.02h16.42v2.16c0,2.78.62,4.97,1.87,6.55,1.25,1.58,2.93,2.38,5.04,2.38s3.65-.84,4.9-2.52c1.25-1.68,1.87-3.91,1.87-6.7v-16.13h-1.15c-1.63,3.36-3.7,5.98-6.19,7.85-2.5,1.87-5.23,2.81-8.21,2.81-4.51,0-8.14-1.92-10.87-5.76-2.74-3.84-4.1-8.93-4.1-15.26v-34.85c0-6.14,1.34-11.09,4.03-14.83,2.69-3.74,6.29-5.62,10.8-5.62,2.97,0,5.74.91,8.28,2.74,2.54,1.82,4.63,4.46,6.26,7.92h1.15v-9.22h16.42v81.36Zm-16.42-61.34c-.77-2.11-1.87-3.82-3.31-5.11-1.44-1.3-2.98-1.94-4.61-1.94-1.82,0-3.31.82-4.46,2.45-1.15,1.63-1.73,3.7-1.73,6.19v29.95c0,2.59.58,4.73,1.73,6.41,1.15,1.68,2.64,2.52,4.46,2.52,1.63,0,3.17-.65,4.61-1.94,1.44-1.3,2.54-3.05,3.31-5.26v-33.26Z"/>
  </g>
  <g>
    <path class="cls-2" d="m116.02,94.66v100.8h-17.28v-44.21h-14.83v44.21h-17.28v-100.8h17.28v41.62h14.83v-41.62h17.28Z"/>
    <path class="cls-2" d="m152.31,143.77c0-2.78-.63-4.99-1.87-6.62-1.25-1.63-2.88-2.45-4.9-2.45s-3.79.82-5.04,2.45c-1.25,1.63-1.87,3.84-1.87,6.62v8.35h-16.42v-7.34c0-7.49,2.06-13.39,6.19-17.71,4.13-4.32,9.79-6.48,16.99-6.48s12.89,2.18,17.06,6.55c4.18,4.37,6.26,10.25,6.26,17.64v50.69h-16.42v-7.92h-.43c-3.84,6.24-8.88,9.36-15.12,9.36-4.51,0-8.14-1.54-10.87-4.61-2.74-3.07-4.1-7.06-4.1-11.95v-8.06c0-5.18,1.75-9.26,5.26-12.24,3.5-2.97,8.28-4.46,14.33-4.46h10.94v-11.81Zm0,20.16h-4.46c-6.43,0-9.65,2.45-9.65,7.34v5.47c0,2.3.55,4.1,1.66,5.4,1.1,1.3,2.66,1.94,4.68,1.94,3.84,0,6.43-2.06,7.78-6.19v-13.97Z"/>
    <path class="cls-2" d="m220.99,195.46h-16.42v-9.22h-1.15c-3.36,7.11-8.16,10.66-14.4,10.66-4.23,0-7.78-1.73-10.66-5.18-2.88-3.46-4.32-8.54-4.32-15.26v-54.43h16.42v52.56c0,2.5.58,4.51,1.73,6.05,1.15,1.54,2.69,2.3,4.61,2.3,1.63,0,3.14-.6,4.54-1.8,1.39-1.2,2.47-2.85,3.24-4.97v-54.14h16.42v73.44Z"/>
    <path class="cls-2" d="m256.56,148.23v-4.61c0-2.78-.58-4.97-1.73-6.55s-2.83-2.38-5.04-2.38-3.77.72-4.97,2.16c-1.2,1.44-1.8,3.41-1.8,5.9v.14c0,2.5.55,4.37,1.66,5.62,1.1,1.25,3.14,2.35,6.12,3.31l8.78,3.6c4.7,1.83,8.16,4.13,10.37,6.91,2.21,2.79,3.31,6.62,3.31,11.52v1.87c0,2.88-.55,5.59-1.66,8.14-1.1,2.54-2.69,4.78-4.75,6.7-2.07,1.92-4.56,3.46-7.49,4.61-2.93,1.15-6.22,1.73-9.86,1.73s-7.06-.58-9.94-1.73c-2.88-1.15-5.31-2.78-7.27-4.9-1.97-2.11-3.46-4.58-4.46-7.42-1.01-2.83-1.51-5.93-1.51-9.29v-4.32h16.42v4.32c0,2.79.62,4.97,1.87,6.55,1.25,1.58,2.93,2.38,5.04,2.38s3.96-.74,5.26-2.23c1.3-1.49,1.94-3.33,1.94-5.54v-.58c0-2.5-.55-4.37-1.66-5.62-1.1-1.25-3.29-2.4-6.55-3.46l-9.07-3.46c-4.61-1.63-7.9-3.86-9.86-6.7-1.97-2.83-2.95-6.65-2.95-11.45v-1.58c0-2.88.5-5.62,1.51-8.21,1.01-2.59,2.5-4.87,4.46-6.84,1.97-1.97,4.37-3.5,7.2-4.61,2.83-1.1,6.07-1.66,9.72-1.66s7.06.58,9.94,1.73c2.88,1.15,5.3,2.79,7.27,4.9,1.97,2.11,3.48,4.56,4.54,7.34,1.06,2.79,1.58,5.86,1.58,9.22v4.46h-16.42Z"/>
  </g>
  <g>
    <path class="cls-2" d="m179.92,362.04l-14.88-25.85h-8.09v25.85h-10.6v-64.63h22.32c4.96,0,9.16.87,12.6,2.6,3.44,1.74,6.01,4.06,7.72,6.97,1.7,2.92,2.56,6.17,2.56,9.77,0,4.22-1.22,8.04-3.67,11.49-2.45,3.44-6.22,5.78-11.3,7.02l16,26.78h-12.65Zm-22.97-34.32h11.72c3.97,0,6.96-.99,8.97-2.98,2.01-1.98,3.02-4.65,3.02-8s-.99-5.97-2.98-7.86c-1.98-1.89-4.99-2.84-9.02-2.84h-11.72v21.67Z"/>
    <path class="cls-2" d="m215.72,305.96v18.97h22.32v8.65h-22.32v19.81h25.11v8.65h-35.71v-64.73h35.71v8.65h-25.11Z"/>
    <path class="cls-2" d="m263.43,360.41c-3.47-1.52-6.2-3.67-8.18-6.46-1.98-2.79-2.98-6.05-2.98-9.77h11.35c.25,2.79,1.35,5.08,3.3,6.88,1.95,1.8,4.7,2.7,8.23,2.7s6.51-.88,8.56-2.65,3.07-4.05,3.07-6.84c0-2.17-.64-3.94-1.91-5.3-1.27-1.36-2.85-2.42-4.74-3.16-1.89-.74-4.51-1.55-7.86-2.42-4.22-1.12-7.64-2.25-10.28-3.39-2.64-1.15-4.88-2.93-6.74-5.35-1.86-2.42-2.79-5.64-2.79-9.67,0-3.72.93-6.97,2.79-9.76,1.86-2.79,4.46-4.93,7.81-6.42,3.35-1.49,7.22-2.23,11.62-2.23,6.26,0,11.39,1.57,15.39,4.7,4,3.13,6.21,7.42,6.65,12.88h-11.72c-.19-2.36-1.3-4.37-3.35-6.04-2.05-1.67-4.74-2.51-8.09-2.51-3.04,0-5.52.78-7.44,2.33-1.92,1.55-2.88,3.78-2.88,6.7,0,1.99.6,3.61,1.81,4.88,1.21,1.27,2.74,2.28,4.6,3.02,1.86.74,4.4,1.55,7.63,2.42,4.28,1.18,7.77,2.36,10.46,3.53,2.7,1.18,4.99,2.99,6.88,5.44,1.89,2.45,2.84,5.72,2.84,9.81,0,3.29-.88,6.39-2.65,9.3-1.77,2.92-4.34,5.25-7.72,7.02-3.38,1.77-7.36,2.65-11.95,2.65-4.34,0-8.25-.76-11.72-2.28Z"/>
    <path class="cls-2" d="m351.78,297.4v8.65h-17.21v55.99h-10.6v-55.99h-17.3v-8.65h45.1Z"/>
    <path class="cls-2" d="m401.44,348.83h-27.06l-4.65,13.21h-11.07l23.16-64.73h12.28l23.16,64.73h-11.16l-4.65-13.21Zm-2.98-8.65l-10.51-30.04-10.6,30.04h21.11Z"/>
    <path class="cls-2" d="m437.8,297.4v41.2c0,4.9,1.29,8.59,3.86,11.07,2.57,2.48,6.15,3.72,10.74,3.72s8.26-1.24,10.83-3.72c2.57-2.48,3.86-6.17,3.86-11.07v-41.2h10.6v41.01c0,5.27-1.15,9.73-3.44,13.39-2.29,3.66-5.36,6.39-9.21,8.18-3.85,1.8-8.09,2.7-12.74,2.7s-8.88-.9-12.69-2.7c-3.81-1.8-6.84-4.53-9.07-8.18-2.23-3.66-3.35-8.12-3.35-13.39v-41.01h10.6Z"/>
    <path class="cls-2" d="m525.03,362.04l-14.88-25.85h-8.09v25.85h-10.6v-64.63h22.32c4.96,0,9.16.87,12.6,2.6,3.44,1.74,6.01,4.06,7.72,6.97,1.71,2.92,2.56,6.17,2.56,9.77,0,4.22-1.22,8.04-3.67,11.49s-6.22,5.78-11.3,7.02l16,26.78h-12.65Zm-22.97-34.32h11.72c3.97,0,6.96-.99,8.97-2.98,2.01-1.98,3.02-4.65,3.02-8s-.99-5.97-2.98-7.86c-1.99-1.89-4.99-2.84-9.02-2.84h-11.72v21.67Z"/>
    <path class="cls-2" d="m589.2,348.83h-27.06l-4.65,13.21h-11.07l23.16-64.73h12.28l23.16,64.73h-11.16l-4.65-13.21Zm-2.98-8.65l-10.51-30.04-10.6,30.04h21.11Z"/>
    <path class="cls-2" d="m668.16,362.04h-10.6l-31.9-48.27v48.27h-10.6v-64.73h10.6l31.9,48.17v-48.17h10.6v64.73Z"/>
    <path class="cls-2" d="m723.87,297.4v8.65h-17.21v55.99h-10.6v-55.99h-17.3v-8.65h45.11Z"/>
  </g>
  <rect class="cls-2" y="258.58" width="863.15" height="9.34"/>
  <path class="cls-1" d="m525.46,21.58c-.52-3.33-1.4-8.9-5.86-13.95-1.92-2.18-4.26-3.98-6.95-5.34-4.12-1.48-8.39-2.05-12.63-1.68-3.11.27-8.05,1.16-15.11,5.73-5.14,3.33-15.26,11.61-25.33,29.74-5.59,10.06-8.43,18.33-12.02,28.81-3.41,9.92-6.28,20.1-8.55,30.27l-.06.27-10.93,4.67-23.4,8.21-18.57,5.48-14.6,3.18,5.9-27.47,2.27-17.39.58-12.11c-.24-4.12-.99-8.25-2.23-12.22-.8-2.55-1.81-5.07-3.01-7.47l-4.73-8.16c-.97-1.07-3-2.87-5.94-3.16-1.03-.11-2.96-.3-4.56.93-2.43,1.86-2.06,5.51-2.05,5.67.09.83.29,1.18,1.12,2.68.41.73.95,1.71,1.68,3.11,1.34,2.56,2.01,3.84,2.54,5.27.8,2.15,1.22,4.23,1.42,7.18,1.19,17.07-1.54,32.95-1.57,33.1-1.13,6.45-2.65,12.95-4.53,19.32-.78,3.04-3.44,13.09-4.72,14-1.28.91-8.59,2.2-9.42,2.35-.14.02-12.57,1.78-25.26-.48-11.93-2.12-14.06-2.59-14.14-2.61l-.55-.13c-3.29-.75-5.89-1.35-8.38,0-2.73,1.49-3.54,4.36-3.57,4.48-.21.75-.76,3.37.71,5.32.77,1.02,1.8,1.46,2.79,1.84,5.85,2.2,9.44,2.46,9.48,2.46,2.39.16,11.3.61,25.79-.17l18.35-1.45-.28.79c-.04.12-4.2,11.71-6.77,18.24-4.69,11.89-8.74,20.49-12.16,27.63-4.35,9.05-9.05,18.08-13.99,26.84-1.59,3.23-3.41,6.34-5.41,9.24-9.29,13.51-16.65,20.92-16.72,20.99-1.07,1.07-3.45,3.45-3.48,6.56,0,.49.05,2.99,1.55,3.86.43.25,1.14.48,2.89.03,2.72-.7,5.26-2.31,7.54-4.79,6.11-7.11,11.94-14.69,17.3-22.5,5.55-8.08,9.3-14.63,16.11-26.51,9.23-16.1,13.86-24.18,18.8-35.26,4.04-9.05,7.56-18.4,10.48-27.79l.1-.31.32-.06c.07-.01,6.89-1.41,16.5-3.13l.94-.17c8.87-1.58,11.55-2.06,27.3-6.42,16.09-4.45,24.16-7.59,24.24-7.62l.92-.36-.19.97c-.08.42-8.2,42.03-9.19,51.49-.02.19-1.98,19.4.86,36.21.02.1,1.68,9.71,6.43,17.06,1.96,3.03,4.3,5.31,4.33,5.33,1.58,1.54,3.39,2.94,5.22,4.04,1.9,1.14,3.93,2.06,6.04,2.72,1.36.24,2.83.41,4.29.5,4.4.26,7.64-.3,11.07-.9.05,0,5.01-.89,12.18-3.19,1.31-.42,2.6-.88,3.16-1.08,2.2-.79,2.83-1.1,3.07-1.22.9-.43,1.68-.8,2.57-1.5,1.08-.84,1.79-1.4,2.04-2.35.19-.72.08-1.49-.31-2.32,0-.01-.51-1.03-1.56-1.71-1.28-.83-3.03-.39-5.45.22-1.86.47-4.17,1.05-6.86,1.14-1.78.06-5.95.2-9.85-2.33-1.44-.94-2.71-2.15-3.76-3.6-.08-.06-3.45-3.31-5.03-9.11l-.33-1.2c-1.48-5.28-3-10.74-2.03-29.95,1.03-20.35,2.85-33.5,2.87-33.63l5.5-35.4.21-.13c.14-.09,13.97-8.72,30.16-20.8,16.13-12.03,26.32-27.3,26.42-27.46,3.11-4.9,10.13-17.78,7.98-31.37Zm-16.24,7.1c-.29,1.31-.78,3.24-1.54,5.51-2.53,7.53-6.07,12.73-9.83,18.09-3.5,5-6.45,8.39-7.55,9.63-2.95,3.34-5.38,5.64-8.13,8.26-3.92,3.72-5.88,5.59-8.44,7.44-2.41,1.75-6.08,4.07-11.11,6.07,2.39-7.35,4.79-14.69,7.18-22.04,2.81-6.95,5.48-12.65,7.55-16.85.97-1.96,5.95-11.92,13.6-20.37,1.05-1.16,3.2-3.45,6.7-4.56,1.58-.5,5.33-1.66,8.39.52,2.43,1.73,3.58,4.95,3.17,8.29Z"/>
</svg>